HIERARCHY
ROOT joint_Root
{
	OFFSET 0.0 0.0 0.0
	CHANNELS 6 Xposition Yposition Zposition Zrotation Xrotation Yrotation 
	JOINT Hips
	{
		OFFSET -0.726466 93.3139 -2.00062
		CHANNELS 6 Xposition Yposition Zposition Zrotation Xrotation Yrotation 
		JOINT Spine
		{
			OFFSET 15.7357 0.0 0.0
			CHANNELS 6 Xposition Yposition Zposition Zrotation Xrotation Yrotation 
			JOINT Chest
			{
				OFFSET 8.98455 -0.406207 0.0
				CHANNELS 6 Xposition Yposition Zposition Zrotation Xrotation Yrotation 
				JOINT Neck
				{
					OFFSET 16.3773 0.0 0.0
					CHANNELS 6 Xposition Yposition Zposition Zrotation Xrotation Yrotation 
					JOINT Head
					{
						OFFSET 6.45672 0.0 0.0
						CHANNELS 6 Xposition Yposition Zposition Zrotation Xrotation Yrotation 
						End Site
						{
							OFFSET 0.0 0.0 0.0
						}
					}
				}
				JOINT Shoulder_L
				{
					OFFSET 12.9942 -0.242716 4.98039
					CHANNELS 6 Xposition Yposition Zposition Zrotation Xrotation Yrotation 
					JOINT UpperArm_L
					{
						OFFSET 5.34809 0.0 0.0
						CHANNELS 6 Xposition Yposition Zposition Zrotation Xrotation Yrotation 
						JOINT LowerArm_L
						{
							OFFSET 24.3286 1.87007e-05 0.0
							CHANNELS 6 Xposition Yposition Zposition Zrotation Xrotation Yrotation 
							JOINT Hand_L
							{
								OFFSET 22.2916 0.0 0.0
								CHANNELS 6 Xposition Yposition Zposition Zrotation Xrotation Yrotation 
								End Site
								{
									OFFSET 0.0 0.0 0.0
								}
							}
						}
					}
				}
				JOINT Shoulder_R
				{
					OFFSET 12.9945 -0.242716 -4.98039
					CHANNELS 6 Xposition Yposition Zposition Zrotation Xrotation Yrotation 
					JOINT UpperArm_R
					{
						OFFSET -5.34813 0.0 0.0
						CHANNELS 6 Xposition Yposition Zposition Zrotation Xrotation Yrotation 
						JOINT LowerArm_R
						{
							OFFSET -24.3289 0.000322201 0.0
							CHANNELS 6 Xposition Yposition Zposition Zrotation Xrotation Yrotation 
							JOINT Hand_R
							{
								OFFSET -22.2915 -0.000108084 0.0
								CHANNELS 6 Xposition Yposition Zposition Zrotation Xrotation Yrotation 
								End Site
								{
									OFFSET 0.0 0.0 0.0
								}
							}
						}
					}
				}
			}
		}
		JOINT UpperLeg_L
		{
			OFFSET -2.19248 -6.46944 0.0
			CHANNELS 6 Xposition Yposition Zposition Zrotation Xrotation Yrotation 
			JOINT LowerLeg_L
			{
				OFFSET 39.0811 0.0 -1.23785e-05
				CHANNELS 6 Xposition Yposition Zposition Zrotation Xrotation Yrotation 
				JOINT Foot_L
				{
					OFFSET 40.9854 0.0 -1.26872e-05
					CHANNELS 6 Xposition Yposition Zposition Zrotation Xrotation Yrotation 
					JOINT Toes_L
					{
						OFFSET 11.7543 0.0 0.0
						CHANNELS 6 Xposition Yposition Zposition Zrotation Xrotation Yrotation 
						End Site
						{
							OFFSET 0.0 0.0 0.0
						}
					}
				}
			}
		}
		JOINT UpperLeg_R
		{
			OFFSET -2.19251 6.46944 0.0
			CHANNELS 6 Xposition Yposition Zposition Zrotation Xrotation Yrotation 
			JOINT LowerLeg_R
			{
				OFFSET -39.0811 -0.00228153 -0.0401928
				CHANNELS 6 Xposition Yposition Zposition Zrotation Xrotation Yrotation 
				JOINT Foot_R
				{
					OFFSET -40.9854 0.0 0.0
					CHANNELS 6 Xposition Yposition Zposition Zrotation Xrotation Yrotation 
					JOINT Toes_R
					{
						OFFSET -11.7543 0.0 0.0
						CHANNELS 6 Xposition Yposition Zposition Zrotation Xrotation Yrotation 
						End Site
						{
							OFFSET 0.0 0.0 0.0
						}
					}
				}
			}
		}
	}
}
MOTION
Frames:	9
Frame Time:	0.0333333
0.000000 0.000000 0.000000 0.000000 0.000000 -0.000000 -1.623650 92.149600 -0.736093 87.799000 -0.598058 4.754360 15.735700 0.000005 -0.000001 75.531900 86.805200 -74.905600 8.984550 -0.406207 -0.000000 -1.570030 -1.647010 1.229660 16.377300 -0.000001 -0.000001 -0.950485 -1.242510 1.160430 6.456720 -0.000001 -0.000000 -1.836160 -0.388590 0.082221 12.994200 -0.242716 4.980390 -84.023600 -12.487000 -64.164800 5.348090 -0.000007 -0.000001 -65.407000 -57.681500 -93.554900 24.328600 0.000019 0.000005 3.836480 1.647350 -66.795600 22.291600 -0.000001 0.000005 22.237400 5.653410 -15.350000 12.994500 -0.242716 -4.980390 93.309600 -7.383050 -65.771300 -5.348130 -0.000001 -0.000004 -53.444000 -57.693500 -100.943000 -24.328900 0.000322 -0.000009 3.598030 2.854580 -51.630100 -22.291500 -0.000108 -0.000004 24.051900 5.633520 -13.604600 -2.192480 -6.469440 -0.000000 -169.223000 -18.699700 -1.943020 39.081100 -0.000007 -0.000012 -0.133827 0.325285 22.363100 40.985400 -0.000006 -0.000013 -5.821380 -0.181855 -63.466300 11.754300 -0.000000 0.000003 -0.000122 -0.001223 -16.624300 -2.192510 6.469440 -0.000001 174.861000 23.205800 -179.761000 -39.081100 -0.002282 -0.040193 0.025859 -0.059244 20.829200 -40.985400 0.000008 0.000006 -0.234581 2.740210 -63.978400 -11.754300 -0.000006 -0.000006 -0.004867 -0.060177 -19.021500
0.000000 0.000000 0.000000 0.000000 0.000000 -0.000000 -1.593870 92.155000 -0.775323 87.846100 -0.517337 4.717120 15.735700 0.000005 -0.000001 75.872500 86.762600 -75.242200 8.984550 -0.406207 -0.000000 -1.477960 -1.630850 1.239160 16.377300 -0.000001 -0.000001 -0.922354 -1.283520 1.161290 6.456720 -0.000001 -0.000000 -1.842550 -0.409715 0.097335 12.994200 -0.242716 4.980390 -84.057000 -12.418200 -64.169600 5.348090 -0.000007 -0.000001 -64.549400 -57.738600 -92.480700 24.328600 0.000019 0.000005 3.779350 1.596230 -67.135500 22.291600 -0.000001 0.000005 22.045800 5.652750 -15.283500 12.994500 -0.242716 -4.980390 93.272900 -7.295900 -65.757900 -5.348130 -0.000001 -0.000004 -53.077400 -57.761500 -100.354000 -24.328900 0.000322 -0.000009 3.421990 2.674150 -52.047100 -22.291500 -0.000108 -0.000004 23.857000 5.631770 -13.470500 -2.192480 -6.469440 -0.000000 -169.336000 -18.657000 -2.032000 39.081100 -0.000007 -0.000012 -0.131142 0.319025 22.346200 40.985400 -0.000006 -0.000013 -5.780700 -0.190956 -63.425800 11.754300 -0.000000 0.000003 -0.000136 -0.001337 -16.628500 -2.192510 6.469440 -0.000001 174.806000 23.281400 -179.805000 -39.081100 -0.002282 -0.040193 0.026735 -0.061586 20.817200 -40.985400 0.000008 0.000006 -0.169965 2.766670 -63.982500 -11.754300 -0.000006 -0.000006 -0.004702 -0.058549 -18.955200
0.000000 0.000000 0.000000 0.000000 0.000000 -0.000000 -1.559160 92.168300 -0.809832 87.848700 -0.471658 4.638860 15.735700 0.000005 -0.000001 76.537800 86.729300 -75.897800 8.984550 -0.406207 -0.000000 -1.395380 -1.573690 1.260470 16.377300 -0.000001 -0.000001 -0.943068 -1.294510 1.142150 6.456720 -0.000001 -0.000000 -1.726210 -0.465473 0.187255 12.994200 -0.242716 4.980390 -84.128000 -12.300700 -64.231200 5.348090 -0.000007 -0.000001 -63.324500 -57.795400 -90.916500 24.328600 0.000019 0.000005 3.444080 1.404080 -67.847600 22.291600 -0.000001 0.000005 21.778800 5.651700 -15.178500 12.994500 -0.242716 -4.980390 93.205800 -7.159190 -65.799700 -5.348130 -0.000001 -0.000004 -52.359900 -57.850600 -99.134900 -24.328900 0.000322 -0.000009 3.129630 2.376890 -52.831100 -22.291500 -0.000108 -0.000004 23.386900 5.627820 -13.173000 -2.192480 -6.469440 -0.000000 -169.392000 -18.688800 -2.124780 39.081100 -0.000007 -0.000012 -0.130868 0.319240 22.290500 40.985400 -0.000006 -0.000013 -5.736410 -0.126595 -63.369300 11.754300 -0.000000 0.000003 -0.000130 -0.001285 -16.626600 -2.192510 6.469440 -0.000001 174.835000 23.291100 -179.918000 -39.081100 -0.002282 -0.040193 0.026992 -0.062325 20.797500 -40.985400 0.000008 0.000006 -0.189800 2.694630 -63.882500 -11.754300 -0.000006 -0.000006 -0.004992 -0.061390 -19.070900
0.000000 0.000000 0.000000 0.000000 0.000000 -0.000000 -1.536740 92.170400 -0.854145 87.849000 -0.397882 4.595100 15.735700 0.000005 -0.000001 77.060600 86.679600 -76.407900 8.984550 -0.406207 -0.000000 -1.284820 -1.538250 1.287630 16.377300 -0.000001 -0.000001 -0.877593 -1.320800 1.157430 6.456720 -0.000001 -0.000000 -1.702570 -0.504047 0.144568 12.994200 -0.242716 4.980390 -84.199300 -12.216900 -64.355600 5.348090 -0.000007 -0.000001 -61.796400 -57.746600 -88.519800 24.328600 0.000019 0.000005 2.838000 1.076800 -69.241300 22.291600 -0.000001 0.000005 21.075300 5.648700 -14.885200 12.994500 -0.242716 -4.980390 93.138200 -7.014110 -65.820700 -5.348130 -0.000001 -0.000004 -51.291800 -57.757600 -97.224400 -24.328900 0.000322 -0.000009 2.749630 1.997500 -54.043300 -22.291500 -0.000108 -0.000004 22.727900 5.620940 -12.677600 -2.192480 -6.469440 -0.000000 -169.436000 -18.690200 -2.231700 39.081100 -0.000007 -0.000012 -0.130253 0.317303 22.318200 40.985400 -0.000006 -0.000013 -5.698120 -0.073908 -63.349700 11.754300 -0.000000 0.000003 -0.000131 -0.001295 -16.627000 -2.192510 6.469440 -0.000001 174.840000 23.336100 -179.966000 -39.081100 -0.002282 -0.040193 0.026507 -0.061173 20.759000 -40.985400 0.000008 0.000006 -0.261912 2.688610 -63.848600 -11.754300 -0.000006 -0.000006 -0.004909 -0.060584 -19.038100
0.000000 0.000000 0.000000 0.000000 0.000000 -0.000000 -1.516580 92.176800 -0.892512 87.865700 -0.304221 4.557090 15.735700 0.000005 -0.000001 77.559400 86.609000 -76.907200 8.984550 -0.406207 -0.000000 -1.134400 -1.511360 1.289090 16.377300 -0.000001 -0.000001 -0.816081 -1.331650 1.112490 6.456720 -0.000001 -0.000000 -1.651650 -0.553068 0.223662 12.994200 -0.242716 4.980390 -84.242200 -12.165800 -64.430800 5.348090 -0.000007 -0.000001 -59.885700 -57.384700 -85.142500 24.328600 0.000019 0.000005 1.622120 0.548320 -71.342500 22.291600 -0.000001 0.000005 19.991000 5.644110 -14.474300 12.994500 -0.242716 -4.980390 93.017500 -6.746270 -65.832400 -5.348130 -0.000001 -0.000004 -49.892600 -57.435300 -94.548900 -24.328900 0.000322 -0.000009 2.130650 1.439590 -55.989300 -22.291500 -0.000108 -0.000004 21.640600 5.607260 -11.777300 -2.192480 -6.469440 -0.000000 -169.507000 -18.629300 -2.320250 39.081100 -0.000007 -0.000012 -0.130247 0.317536 22.302700 40.985400 -0.000006 -0.000013 -5.665000 -0.064534 -63.310900 11.754300 -0.000000 0.000003 -0.000141 -0.001376 -16.629900 -2.192510 6.469440 -0.000001 174.825000 23.443200 179.983000 -39.081100 -0.002282 -0.040193 0.027244 -0.063150 20.749200 -40.985400 0.000008 0.000006 -0.197400 2.692450 -63.825800 -11.754300 -0.000006 -0.000006 -0.004918 -0.060674 -19.041700
0.000000 0.000000 0.000000 0.000000 0.000000 -0.000000 -1.491120 92.177900 -0.923440 87.879800 -0.222007 4.520670 15.735700 0.000005 -0.000001 78.316000 86.532100 -77.662200 8.984550 -0.406207 -0.000000 -0.965332 -1.454110 1.294940 16.377300 -0.000001 -0.000001 -0.681021 -1.368680 1.162690 6.456720 -0.000001 -0.000000 -1.631140 -0.596867 0.179837 12.994200 -0.242716 4.980390 -84.339400 -12.017300 -64.542600 5.348090 -0.000007 -0.000001 -56.984700 -56.552700 -80.338000 24.328600 0.000019 0.000005 -0.912821 -0.259487 -74.073500 22.291600 -0.000001 0.000005 18.920700 5.640640 -14.177800 12.994500 -0.242716 -4.980390 92.819700 -6.336430 -65.950200 -5.348130 -0.000001 -0.000004 -47.324600 -57.041500 -90.274600 -24.328900 0.000322 -0.000009 1.473500 0.885951 -59.023400 -22.291500 -0.000108 -0.000004 20.260900 5.581050 -10.256600 -2.192480 -6.469440 -0.000000 -169.563000 -18.621100 -2.418170 39.081100 -0.000007 -0.000012 -0.129113 0.314414 22.325500 40.985400 -0.000006 -0.000013 -5.622930 0.004927 -63.289600 11.754300 -0.000000 0.000003 -0.000143 -0.001392 -16.630500 -2.192510 6.469440 -0.000001 174.817000 23.500100 179.934000 -39.081100 -0.002282 -0.040193 0.026979 -0.062499 20.734100 -40.985400 0.000008 0.000006 -0.261632 2.642300 -63.805500 -11.754300 -0.000006 -0.000006 -0.004783 -0.059352 -18.987800
0.000000 0.000000 0.000000 0.000000 0.000000 -0.000000 -1.477940 92.168200 -0.947289 87.878700 -0.138330 4.570920 15.735700 0.000005 -0.000001 79.454600 86.420300 -78.807400 8.984550 -0.406207 -0.000000 -0.719483 -1.357920 1.285390 16.377300 -0.000001 -0.000001 -0.486280 -1.408000 1.204020 6.456720 -0.000001 -0.000000 -1.551250 -0.739404 0.240892 12.994200 -0.242716 4.980390 -84.469600 -11.865900 -64.784800 5.348090 -0.000007 -0.000001 -53.678900 -55.091200 -74.433800 24.328600 0.000019 0.000005 -3.189080 -0.700555 -77.615800 22.291600 -0.000001 0.000005 17.695300 5.637260 -13.898700 12.994500 -0.242716 -4.980390 92.594100 -5.871110 -66.110300 -5.348130 -0.000001 -0.000004 -44.294500 -56.265000 -84.722000 -24.328900 0.000322 -0.000009 1.168770 0.591194 -63.220900 -22.291500 -0.000108 -0.000004 18.455300 5.555770 -8.975910 -2.192480 -6.469440 -0.000000 -169.569000 -18.561200 -2.447300 39.081100 -0.000007 -0.000012 -0.129891 0.314828 22.420000 40.985400 -0.000006 -0.000013 -5.602160 0.031032 -63.319800 11.754300 -0.000000 0.000003 -0.000129 -0.001279 -16.626300 -2.192510 6.469440 -0.000001 174.787000 23.574600 179.955000 -39.081100 -0.002282 -0.040193 0.027877 -0.064665 20.795000 -40.985400 0.000008 0.000006 -0.201511 2.628160 -63.855800 -11.754300 -0.000006 -0.000006 -0.004700 -0.058535 -18.954500
0.000000 0.000000 0.000000 0.000000 0.000000 -0.000000 -1.452300 92.153600 -0.971346 87.904000 -0.068377 4.668270 15.735700 0.000005 -0.000001 80.736800 86.276300 -80.101600 8.984550 -0.406207 -0.000000 -0.408562 -1.243810 1.265330 16.377300 -0.000001 -0.000001 -0.208016 -1.483400 1.320820 6.456720 -0.000001 -0.000000 -1.558410 -0.877203 0.168992 12.994200 -0.242716 4.980390 -84.662500 -11.704800 -65.272600 5.348090 -0.000007 -0.000001 -50.311800 -53.128100 -67.720500 24.328600 0.000019 0.000005 -3.507530 -0.501657 -81.871500 22.291600 -0.000001 0.000005 16.484800 5.633510 -13.603300 12.994500 -0.242716 -4.980390 92.360000 -5.411740 -66.395200 -5.348130 -0.000001 -0.000004 -40.640300 -55.118300 -77.855700 -24.328900 0.000322 -0.000009 0.955544 0.381580 -68.274400 -22.291500 -0.000108 -0.000004 16.626300 5.534500 -7.989360 -2.192480 -6.469440 -0.000000 -169.588000 -18.540400 -2.448960 39.081100 -0.000007 -0.000012 -0.131896 0.317771 22.541800 40.985400 -0.000006 -0.000013 -5.569850 0.065372 -63.351500 11.754300 -0.000000 0.000003 -0.000138 -0.001354 -16.629100 -2.192510 6.469440 -0.000001 174.693000 23.599400 -179.967000 -39.081100 -0.002282 -0.040193 0.027624 -0.063791 20.856600 -40.985400 0.000008 0.000006 -0.253736 2.628260 -63.920400 -11.754300 -0.000006 -0.000006 -0.004522 -0.056760 -18.882300
0.000000 0.000000 0.000000 0.000000 0.000000 -0.000000 -1.440090 92.136000 -1.016040 87.903900 0.016924 4.754250 15.735700 0.000005 -0.000001 81.873500 86.100600 -81.233600 8.984550 -0.406207 -0.000000 -0.038771 -1.145710 1.278650 16.377300 -0.000001 -0.000001 -0.076625 -1.512860 1.356570 6.456720 -0.000001 -0.000000 -1.431270 -1.060890 0.127438 12.994200 -0.242716 4.980390 -84.953000 -11.317400 -65.771000 5.348090 -0.000007 -0.000001 -46.717300 -50.355100 -60.517900 24.328600 0.000019 0.000005 -2.745260 -0.177138 -86.319800 22.291600 -0.000001 0.000005 15.820000 5.629760 -13.316300 12.994500 -0.242716 -4.980390 92.170600 -5.010550 -66.540400 -5.348130 -0.000001 -0.000004 -37.386900 -53.113500 -70.717400 -24.328900 0.000322 -0.000009 0.777743 0.225878 -73.873400 -22.291500 -0.000108 -0.000004 15.113400 5.514610 -7.130840 -2.192480 -6.469440 -0.000000 -169.578000 -18.500900 -2.487440 39.081100 -0.000007 -0.000012 -0.132947 0.317876 22.696600 40.985400 -0.000006 -0.000013 -5.540100 0.136847 -63.391500 11.754300 -0.000000 0.000003 -0.000136 -0.001337 -16.628500 -2.192510 6.469440 -0.000001 174.651000 23.664800 -179.957000 -39.081100 -0.002282 -0.040193 0.028713 -0.066173 20.994300 -40.985400 0.000008 0.000006 -0.234563 2.613360 -63.983200 -11.754300 -0.000006 -0.000006 -0.004689 -0.058425 -18.950100
